<?xml version="1.0" encoding="utf-8"?>
<!-- Generator: Adobe Illustrator 17.1.0, SVG Export Plug-In . SVG Version: 6.00 Build 0)  -->
<!DOCTYPE svg PUBLIC "-//W3C//DTD SVG 1.1//EN" "http://www.w3.org/Graphics/SVG/1.1/DTD/svg11.dtd">
<svg version="1.1" id="Layer_1" xmlns="http://www.w3.org/2000/svg" xmlns:xlink="http://www.w3.org/1999/xlink" x="0px" y="0px"
	 viewBox="0 0 150 38.8" enable-background="new 0 0 150 38.8" xml:space="preserve">
<text transform="matrix(1 0 0 1 323.375 367.25)" font-family="'MyriadPro-Regular'" font-size="12">d585c8</text>
<g>
	<path fill="#565555" d="M32.9,28.8c0,5.2-2.9,7.4-5.5,7.4c-1,0-2-0.3-2.6-1C23.5,34,23,32,23,28.6c0-1.7,0.3-5.1,0.7-9.8
		c-2.3-1.1-4.9-1.6-7.8-1.6c-1.5,0-2.8,0.1-4.1,0.3c-0.8,2.9-1.3,6.1-1.5,8.7c3.3,0.1,6.5-1.4,6.5-4c0-0.6,0.4-1.1,1-1.1
		c0.6,0,1.1,0.4,1.1,1.1c0,3.7-3.9,6.1-8.6,6c0,2.8,0.4,4.9,1.1,5.8c0.2,0.2,0.3,0.4,0.3,0.7c0,0.6-0.5,1.1-1.1,1.1
		c-1.4,0-2.4-2.9-2.4-7.8c-3.6-0.7-5.2-2.8-5.2-5.3c0-3.2,2.8-5.7,7.2-6.9c2-6.2,5.3-11.7,10.1-11.7c1.6,0,2.9,0.5,3.8,1.5
		c1.5,1.5,2.2,4.1,2.2,8.2c0,1.2,0,2.5-0.2,3.9C30.5,20.3,32.9,24.5,32.9,28.8z M5.1,22.7c0,1.5,0.8,2.6,3,3.3
		c0.1-2.2,0.6-5.3,1.3-7.8C7.2,19,5.1,20.5,5.1,22.7z M12.5,15.4c1-0.1,2.2-0.2,3.3-0.2c2.9,0,5.6,0.5,8,1.5c0.1-1,0.1-2,0.1-2.9
		c0-3.4-0.5-5.6-1.6-6.7c-0.5-0.5-1.3-0.9-2.3-0.9C16.8,6.1,14.3,10.3,12.5,15.4z M27.4,34.3c2,0,3.3-2.5,3.3-5.5c0-3.8-2-7-4.9-8.9
		c-0.3,2.8-0.7,6.7-0.7,8.7C25.1,31.8,25.6,34.3,27.4,34.3z"/>
	<path fill="#565555" d="M39.4,20.7c-0.5,2.2-1.2,5.5-1.2,8.6c0,2.3,0.4,4.6,2.1,4.6c3.1,0,6-6.4,7.1-14.1c0.1-0.6,0.5-0.9,1.3-0.9
		c0.5,0,0.9,0.6,0.8,1.2c0,0.5-0.3,2.4-0.7,4c-0.4,2.6-0.8,4.9-0.8,6.6c0,1.6,0.3,2.6,1,3.4c0.2,0.2,0.2,0.5,0.2,0.7
		c0,0.6-0.5,1.1-1.1,1.1c-1,0-2.3-2.1-2.2-4.8c-1.3,3-3.4,4.9-5.5,4.9c-1.8,0-4.2-1.1-4.2-6.7c0-3.3,0.7-7,1.1-8.7
		c0.1-0.4,0.2-1.2,1.1-1.2c0.6,0,1.1,0.5,1.1,1.1V20.7z"/>
	<path fill="#565555" d="M54.8,35c-0.1,0.6-0.5,0.9-1.1,0.9c-0.6,0-1-0.5-1-1.1c0-0.3,1.4-8.4,1.4-10c0-2.2-0.4-3-1.1-3.6
		c-0.2-0.2-0.3-0.5-0.3-0.8c0-0.6,0.5-1.1,1-1.1c0.9,0,2.3,1.7,2.2,4.1c1.1-3.2,3.7-4.7,6.2-4.7c0.6,0,1.2,0.4,1.2,1.1
		c0,0.6-0.4,0.9-1,1c-5.1,0.3-6.1,6.3-7.2,12.5L54.8,35z"/>
	<path fill="#565555" d="M77,23.7c0,1.9-0.3,4-0.6,5.9c-0.2,1.3-0.5,2.9-0.5,3.9c0,0.3,0,0.5,0.1,0.6c0.1,0.2,0.2,0.3,0.2,0.6
		c0,0.5-0.5,1-1.1,1c-1.1,0-1.4-1.4-1.4-2.4c0-1,0.3-2.4,0.5-4.2c0.3-1.8,0.6-3.7,0.6-5.4c0-2.4-1.3-3.2-2.5-3.2
		c-3.7,0-6.5,5.7-6.5,10.1c0,1.8,0.8,3.1,2.1,3.1c1.3,0,2.3-1.2,2.8-2.5c0.1-0.4,0.5-0.6,0.9-0.6c0.6,0,1,0.5,1,1.1
		c0,0.8-1.6,4.1-5.1,4.1c-2,0-4-1.5-4-5.1c0-5.1,3.5-12.2,8.9-12.2C75.3,18.5,77,20.4,77,23.7z"/>
	<path fill="#CA86B9" d="M106.1,13.2c0,5.7-5.4,8.8-8.8,8.8c-0.6,0-1.1-0.5-1.1-1.1c0-0.5,0.4-0.9,1-1c2.8-0.1,6.7-2.6,6.7-6.7
		c0-3.8-3-6.5-7.1-6.5c-2.2,0-4.2,0.5-6,1.6c2,3.8,2.8,8.8,2.8,13.7c0,9-2.8,14.1-7,14.1c-3.6,0-6.1-3.3-6.1-10.4
		c0-6.2,2.3-13.6,7.4-18c-1.4-1.8-3.4-3-5.8-3c-0.6,0-1.1-0.4-1.1-1c0-0.6,0.5-1.1,1.1-1.1c3,0,5.7,1.5,7.4,3.9
		c2.2-1.2,4.6-1.9,7.2-1.9C102.3,4.6,106.1,8.3,106.1,13.2z M89.1,9.5c-4.6,4.1-6.3,11.3-6.3,16.2c0,4.3,1.2,8.5,4,8.5
		c2.5,0,4.7-4.6,4.8-11.8C91.6,17.8,90.9,12.9,89.1,9.5z"/>
	<path fill="#CA86B9" d="M111.6,20.3c0,0,0,0.1,0,0.2c-0.9,3.5-1.8,9.9-2.1,14.6c0,0.6-0.5,1-1.1,1c-0.6,0-1.1-0.5-1.1-1.1
		s0.7-9.2,2.2-15c0.1-0.6,0.7-0.9,1.3-0.8C111.3,19.4,111.6,19.8,111.6,20.3z M113.9,12.9l-2,1.4l3,1.9l-3.6-0.6l-1.4,2.7l0-2.8
		l-2.4-0.2l2.4-1.4l-0.2-2.3l1.5,1.6L113.9,12.9z"/>
	<path fill="#CA86B9" d="M128.2,25.6c0,3.4-0.8,7.3-1.1,9c-0.1,1-0.9,1-1.1,1c-0.6,0-1.1-0.5-1.1-1.1c0,0,0-0.1,0-0.2
		c0.4-1.7,1.1-5.4,1.1-8.6c0-2.6-0.5-4.5-1.8-4.5c-2.6,0-5.8,5.5-7.3,13.6c-0.1,0.5-0.5,0.8-1,0.8c-0.6,0-1-0.5-1-1.1
		c0-0.6,0.9-4.2,1.1-4.9c0.5-2.2,1-4.4,1-6c0-1.5-0.2-2.3-0.9-2.9c-0.1-0.2-0.2-0.5-0.2-0.8c0-0.5,0.5-1,1.1-1c1,0,2.3,1.8,2.1,4.8
		c1.3-3,3.2-4.6,5.4-4.6C125.5,18.9,128.2,19.6,128.2,25.6z"/>
	<path fill="#CA86B9" d="M136.5,32.2c0,1.4,0.1,1.8,0.2,2c0.1,0.1,0.1,0.3,0.1,0.5c0,0.6-0.5,1.1-1.1,1.1c-1.4,0-1.5-2.2-1.5-3.5
		c0-1,0.1-2.4,0.3-3.8c-2.4-0.8-3.5-2.3-3.5-3.7c0-2.2,1.8-4,4.8-4c0.2-1.1,0.5-2.4,0.7-3.3c1-4.5,1.6-7,1.6-9c0-1,0-1.6-0.2-1.9
		c0-0.1-0.1-0.3-0.1-0.4c0-0.5,0.3-0.9,0.7-1c0.1,0,0.3-0.1,0.4-0.1c1.3,0,1.3,1.8,1.3,3.4c0,2.3-0.7,5.5-1.3,8.3
		c-0.3,1.2-0.6,2.6-0.9,4.2c1.9,0.4,3.5,1.7,4.6,2.9c1-1,2.2-2.7,2.3-4.6c0-0.5,0.4-1,1-1s1.1,0.5,1.1,1.1c0,2.1-1.9,5.1-3.2,6.1
		c2,2.5,2.8,5.9,2.8,8.9c0,1.1-0.8,1.2-1.1,1.2c-0.1,0-1,0-1-1.2c0-2.5-0.8-5.4-2.4-7.5c-1.1,0.8-3.1,1.8-5.5,1.8
		C136.6,30,136.5,31.3,136.5,32.2z M134.9,26.5c0.2-1.2,0.4-2.5,0.7-3.8c-1.2,0-2.3,0.7-2.3,2c0,0.4,0.2,0.9,0.5,1.2
		C134.1,26.1,134.5,26.4,134.9,26.5z M137.2,26.8c1.6,0,3.1-0.6,4.1-1.5c-0.7-1-2.1-2.1-3.4-2.4C137.5,24.2,137.3,25.5,137.2,26.8
		L137.2,26.8z"/>
</g>
</svg>
