<?xml version="1.0" encoding="utf-8"?>
<!-- Generator: Adobe Illustrator 17.1.0, SVG Export Plug-In . SVG Version: 6.00 Build 0)  -->
<!DOCTYPE svg PUBLIC "-//W3C//DTD SVG 1.1//EN" "http://www.w3.org/Graphics/SVG/1.1/DTD/svg11.dtd">
<svg version="1.1" id="Layer_1" xmlns="http://www.w3.org/2000/svg" xmlns:xlink="http://www.w3.org/1999/xlink" x="0px" y="0px"
	 viewBox="0 0 190.8 25.5" enable-background="new 0 0 190.8 25.5" xml:space="preserve">
<g>
	<path fill="#E73529" d="M1.9,1.4h10.6c2.9,0,5.2,0.8,6.7,2.3c1.3,1.3,2,3.1,2,5.3v0.1c0,3.7-2,6.1-5,7.2l5.6,8.3h-5.9l-5-7.4h-0.1
		H7v7.4H1.9V1.4z M12.1,12.6c2.5,0,3.9-1.3,3.9-3.3V9.3C16,7.1,14.5,6,12,6H7v6.6H12.1z"/>
	<path fill="#E73529" d="M23.5,1.4H41v4.5H28.6v4.7h10.9v4.5H28.6V20h12.5v4.5H23.5V1.4z"/>
	<path fill="#E73529" d="M43.4,1.4h9c7.3,0,12.3,5,12.3,11.5v0.1c0,6.5-5,11.6-12.3,11.6h-9V1.4z M52.4,19.9c4.2,0,7-2.8,7-6.9v-0.1
		c0-4.1-2.8-7-7-7h-3.9v13.9H52.4z"/>
	<path fill="#E73529" d="M67,1.4h9c7.3,0,12.3,5,12.3,11.5v0.1c0,6.5-5,11.6-12.3,11.6h-9V1.4z M76,19.9c4.2,0,7-2.8,7-6.9v-0.1
		c0-4.1-2.8-7-7-7h-3.9v13.9H76z"/>
	<path fill="#E73529" d="M89.6,13L89.6,13c0-6.6,5.2-12,12.3-12c7.1,0,12.2,5.3,12.2,11.9v0.1c0,6.6-5.2,11.9-12.3,11.9
		S89.6,19.6,89.6,13z M108.8,13L108.8,13c0-4-2.9-7.3-7-7.3s-6.9,3.2-6.9,7.2v0.1c0,4,2.9,7.3,7,7.3C106,20.2,108.8,17,108.8,13z"/>
	<path fill="#E73529" d="M113.4,1.4h5.4l4.8,15.6l5.2-15.7h4.4l5.2,15.7l4.8-15.6h5.3l-7.9,23.3h-4.4l-5.2-15.1l-5.2,15.1h-4.4
		L113.4,1.4z"/>
	<path fill="#E73529" d="M150,1.4h4.7l10.8,14.2V1.4h5v23.1h-4.3L155,9.8v14.7h-5V1.4z"/>
	<path fill="#E73529" d="M173.1,19.2h5.3v5.3h-5.3V19.2z"/>
</g>
</svg>
