<?xml version="1.0" encoding="utf-8"?>
<!-- Generator: Adobe Illustrator 17.1.0, SVG Export Plug-In . SVG Version: 6.00 Build 0)  -->
<!DOCTYPE svg PUBLIC "-//W3C//DTD SVG 1.1//EN" "http://www.w3.org/Graphics/SVG/1.1/DTD/svg11.dtd">
<svg version="1.1" xmlns="http://www.w3.org/2000/svg" xmlns:xlink="http://www.w3.org/1999/xlink" x="0px" y="0px"
	 viewBox="0 0 612 150" enable-background="new 0 0 612 150" xml:space="preserve">
<g id="Layer_1">
	<rect x="60.1" display="none" fill="#D45553" width="495" height="150"/>
	<path fill="#D45553" d="M552.1,138c0,6.6-5.4,12-12,12h-471c-6.6,0-12-5.4-12-12V12c0-6.6,5.4-12,12-12h471c6.6,0,12,5.4,12,12V138
		z"/>
</g>
<g id="Layer_2">
	<path fill="#302D2E" d="M143,96.6h-9.2V76.3c0-5.8-2.1-8.3-5.7-8.3c-3.7,0-8,3.2-9.4,7.5v21.1h-9.2V60.4h8.3v6.7
		c2.7-4.6,8-7.3,14.4-7.3c9,0,10.9,7.2,10.9,14.2V96.6z"/>
	<path fill="#302D2E" d="M145.6,83.1V60.4h9.2v20.6c0,5.5,2.1,8.3,6,8.3c3.7,0,7.2-2.1,9.4-6.6V60.4h9.2V86c0,1.9,0.6,2.7,2.5,2.8
		v7.9c-1.9,0.3-3.4,0.5-4.5,0.5c-3.3,0-5.2-1.7-5.7-4.3l-0.2-3c-3.3,5-8.5,7.5-14.6,7.5C149.5,97.3,145.6,92.4,145.6,83.1z"/>
	<path fill="#302D2E" d="M208.3,94.7c-2.5,1.1-6.3,2.5-10.3,2.5c-5.1,0-9.4-2.5-9.4-8.9V67.5H184v-7.1h4.7V48.7h9.2v11.7h7.7v7.1
		h-7.7v17.7c0,2.6,1.6,3.5,3.5,3.5c1.9,0,3.9-0.8,5-1.3L208.3,94.7z"/>
	<path fill="#302D2E" d="M233.5,94.7c-2.5,1.1-6.3,2.5-10.3,2.5c-5.1,0-9.4-2.5-9.4-8.9V67.5h-4.7v-7.1h4.7V48.7h9.2v11.7h7.7v7.1
		h-7.7v17.7c0,2.6,1.6,3.5,3.5,3.5c1.9,0,3.9-0.8,5-1.3L233.5,94.7z"/>
	<path fill="#302D2E" d="M237.4,103.6c1.7,0.5,3,0.6,4.1,0.6c2.3,0,3.7-1.3,5.7-7.7l-14.4-36.2h9.5l9.9,28.2l8.7-28.2h8.7
		l-15.2,43.3c-1.9,5.5-6.4,8.6-12,8.6c-1.7,0-3.3-0.3-4.9-0.8V103.6z"/>
	<path fill="#FFFFFF" d="M288.2,96.6v-49H306c16,0,24.2,10.9,24.2,24.4c0,14.8-9.5,24.6-24.2,24.6H288.2z M306,56h-8.3v32.3h8.3
		c9.4,0,14.6-7,14.6-16.2C320.5,62.6,315.2,56,306,56z"/>
	<path fill="#FFFFFF" d="M358.3,68.4c-5.6,0.1-10.3,2.2-12.3,6.3v21.9h-9.2V60.4h8.5v7.7c2.5-4.9,6.8-8.3,11.2-8.3
		c1,0,1.4,0.1,1.9,0.1V68.4z"/>
	<path fill="#FFFFFF" d="M363.1,83.1V60.4h9.2v20.6c0,5.5,2.1,8.3,6,8.3c3.7,0,7.2-2.1,9.4-6.6V60.4h9.2V86c0,1.9,0.6,2.7,2.5,2.8
		v7.9c-1.9,0.3-3.4,0.5-4.5,0.5c-3.3,0-5.2-1.7-5.7-4.3l-0.2-3c-3.3,5-8.5,7.5-14.6,7.5C367,97.3,363.1,92.4,363.1,83.1z"/>
	<path fill="#FFFFFF" d="M415.6,90.2v21h-9.2V60.4h8.1v6.2c2.7-4.2,7-6.8,12.5-6.8c9.7,0,16.9,8.4,16.9,18.6
		c0,10.6-6.6,18.8-15.9,18.8C422.4,97.3,418,94.5,415.6,90.2z M434.4,78.5c0-6.1-4.3-10.8-10-10.8c-3.5,0-7.5,2.6-8.8,6.1v8.5
		c1.7,4.1,5.4,7.2,9.3,7.2C430.5,89.4,434.4,84.2,434.4,78.5z"/>
	<path fill="#FFFFFF" d="M447.6,85.8c0-6.9,6.3-11.7,15.4-11.7c3.2,0,6.5,0.6,8.8,1.6v-2.1c0-4.8-2.8-7.5-8.1-7.5
		c-3.9,0-7.5,1.4-11.3,4.1l-2.8-5.9c4.7-3.1,9.7-4.6,15-4.6c10.4,0,16.4,5.3,16.4,14.9V86c0,1.9,0.7,2.7,2.5,2.8v7.9
		c-1.7,0.3-3.3,0.5-4.4,0.5c-3.4-0.1-5.2-1.7-5.7-4.3l-0.2-2c-3.2,4.2-8,6.5-13.2,6.5C452.9,97.3,447.6,92.4,447.6,85.8z
		 M470.3,87.5c1-0.8,1.5-1.7,1.5-2.6v-4.1c-2.2-0.8-5-1.4-7.3-1.4c-4.8,0-8.1,2.4-8.1,5.7c0,3.1,2.7,5.5,6.2,5.5
		C465.6,90.5,468.7,89.4,470.3,87.5z"/>
	<path fill="#FFFFFF" d="M489.8,46.2h9.2v38.4c0,2.7,1.4,4.2,3.8,4.2c1,0,2.5-0.4,3.7-0.9l1.2,7.4c-2.5,1.2-6.1,1.9-8.8,1.9
		c-5.7,0-9.1-3.2-9.1-8.9V46.2z"/>
	<path fill="#302D2E" d="M143,96.6h-9.2V76.3c0-5.8-2.1-8.3-5.7-8.3c-3.7,0-8,3.2-9.4,7.5v21.1h-9.2V60.4h8.3v6.7
		c2.7-4.6,8-7.3,14.4-7.3c9,0,10.9,7.2,10.9,14.2V96.6z"/>
	<path fill="#302D2E" d="M145.6,83.1V60.4h9.2v20.6c0,5.5,2.1,8.3,6,8.3c3.7,0,7.2-2.1,9.4-6.6V60.4h9.2V86c0,1.9,0.6,2.7,2.5,2.8
		v7.9c-1.9,0.3-3.4,0.5-4.5,0.5c-3.3,0-5.2-1.7-5.7-4.3l-0.2-3c-3.3,5-8.5,7.5-14.6,7.5C149.5,97.3,145.6,92.4,145.6,83.1z"/>
	<path fill="#302D2E" d="M208.3,94.7c-2.5,1.1-6.3,2.5-10.3,2.5c-5.1,0-9.4-2.5-9.4-8.9V67.5H184v-7.1h4.7V48.7h9.2v11.7h7.7v7.1
		h-7.7v17.7c0,2.6,1.6,3.5,3.5,3.5c1.9,0,3.9-0.8,5-1.3L208.3,94.7z"/>
	<path fill="#302D2E" d="M233.5,94.7c-2.5,1.1-6.3,2.5-10.3,2.5c-5.1,0-9.4-2.5-9.4-8.9V67.5h-4.7v-7.1h4.7V48.7h9.2v11.7h7.7v7.1
		h-7.7v17.7c0,2.6,1.6,3.5,3.5,3.5c1.9,0,3.9-0.8,5-1.3L233.5,94.7z"/>
	<path fill="#302D2E" d="M237.4,103.6c1.7,0.5,3,0.6,4.1,0.6c2.3,0,3.7-1.3,5.7-7.7l-14.4-36.2h9.5l9.9,28.2l8.7-28.2h8.7
		l-15.2,43.3c-1.9,5.5-6.4,8.6-12,8.6c-1.7,0-3.3-0.3-4.9-0.8V103.6z"/>
	<path fill="#FFFFFF" d="M288.2,96.6v-49H306c16,0,24.2,10.9,24.2,24.4c0,14.8-9.5,24.6-24.2,24.6H288.2z M306,56h-8.3v32.3h8.3
		c9.4,0,14.6-7,14.6-16.2C320.5,62.6,315.2,56,306,56z"/>
	<path fill="#FFFFFF" d="M358.3,68.4c-5.6,0.1-10.3,2.2-12.3,6.3v21.9h-9.2V60.4h8.5v7.7c2.5-4.9,6.8-8.3,11.2-8.3
		c1,0,1.4,0.1,1.9,0.1V68.4z"/>
	<path fill="#FFFFFF" d="M363.1,83.1V60.4h9.2v20.6c0,5.5,2.1,8.3,6,8.3c3.7,0,7.2-2.1,9.4-6.6V60.4h9.2V86c0,1.9,0.6,2.7,2.5,2.8
		v7.9c-1.9,0.3-3.4,0.5-4.5,0.5c-3.3,0-5.2-1.7-5.7-4.3l-0.2-3c-3.3,5-8.5,7.5-14.6,7.5C367,97.3,363.1,92.4,363.1,83.1z"/>
	<path fill="#FFFFFF" d="M415.6,90.2v21h-9.2V60.4h8.1v6.2c2.7-4.2,7-6.8,12.5-6.8c9.7,0,16.9,8.4,16.9,18.6
		c0,10.6-6.6,18.8-15.9,18.8C422.4,97.3,418,94.5,415.6,90.2z M434.4,78.5c0-6.1-4.3-10.8-10-10.8c-3.5,0-7.5,2.6-8.8,6.1v8.5
		c1.7,4.1,5.4,7.2,9.3,7.2C430.5,89.4,434.4,84.2,434.4,78.5z"/>
	<path fill="#FFFFFF" d="M447.6,85.8c0-6.9,6.3-11.7,15.4-11.7c3.2,0,6.5,0.6,8.8,1.6v-2.1c0-4.8-2.8-7.5-8.1-7.5
		c-3.9,0-7.5,1.4-11.3,4.1l-2.8-5.9c4.7-3.1,9.7-4.6,15-4.6c10.4,0,16.4,5.3,16.4,14.9V86c0,1.9,0.7,2.7,2.5,2.8v7.9
		c-1.7,0.3-3.3,0.5-4.4,0.5c-3.4-0.1-5.2-1.7-5.7-4.3l-0.2-2c-3.2,4.2-8,6.5-13.2,6.5C452.9,97.3,447.6,92.4,447.6,85.8z
		 M470.3,87.5c1-0.8,1.5-1.7,1.5-2.6v-4.1c-2.2-0.8-5-1.4-7.3-1.4c-4.8,0-8.1,2.4-8.1,5.7c0,3.1,2.7,5.5,6.2,5.5
		C465.6,90.5,468.7,89.4,470.3,87.5z"/>
	<path fill="#FFFFFF" d="M489.8,46.2h9.2v38.4c0,2.7,1.4,4.2,3.8,4.2c1,0,2.5-0.4,3.7-0.9l1.2,7.4c-2.5,1.2-6.1,1.9-8.8,1.9
		c-5.7,0-9.1-3.2-9.1-8.9V46.2z"/>
</g>
</svg>
