<?xml version="1.0" encoding="utf-8"?>
<!-- Generator: Adobe Illustrator 17.1.0, SVG Export Plug-In . SVG Version: 6.00 Build 0)  -->
<!DOCTYPE svg PUBLIC "-//W3C//DTD SVG 1.1//EN" "http://www.w3.org/Graphics/SVG/1.1/DTD/svg11.dtd">
<svg version="1.1" xmlns="http://www.w3.org/2000/svg" xmlns:xlink="http://www.w3.org/1999/xlink" x="0px" y="0px"
	 viewBox="0 0 74.5 26.3" enable-background="new 0 0 74.5 26.3" xml:space="preserve">
<g id="layer">
	<path fill="#FFFFFF" d="M15.8,18.3c0,2.5-1.4,3.6-2.7,3.6c-0.5,0-1-0.1-1.3-0.5c-0.6-0.6-0.9-1.6-0.9-3.2c0-0.8,0.1-2.5,0.3-4.8
		c-1.1-0.5-2.4-0.8-3.8-0.8c-0.7,0-1.4,0-2,0.1c-0.4,1.4-0.6,3-0.7,4.2c1.6,0,3.2-0.7,3.2-1.9c0-0.3,0.2-0.5,0.5-0.5
		c0.3,0,0.5,0.2,0.5,0.5c0,1.8-1.9,3-4.2,2.9c0,1.4,0.2,2.4,0.5,2.8c0.1,0.1,0.1,0.2,0.1,0.3c0,0.3-0.2,0.5-0.5,0.5
		c-0.7,0-1.2-1.4-1.2-3.8c-1.7-0.3-2.5-1.4-2.5-2.6c0-1.6,1.4-2.8,3.5-3.4c1-3,2.6-5.7,4.9-5.7c0.8,0,1.4,0.2,1.8,0.7
		c0.7,0.7,1.1,2,1.1,4c0,0.6,0,1.2-0.1,1.9C14.7,14.2,15.8,16.2,15.8,18.3z M2.3,15.3c0,0.7,0.4,1.3,1.5,1.6c0-1.1,0.3-2.6,0.6-3.8
		C3.4,13.5,2.3,14.2,2.3,15.3z M5.9,11.8c0.5,0,1.1-0.1,1.6-0.1c1.4,0,2.7,0.2,3.9,0.7c0-0.5,0-1,0-1.4c0-1.7-0.2-2.7-0.8-3.3
		c-0.2-0.2-0.6-0.4-1.1-0.4C8,7.3,6.8,9.3,5.9,11.8z M13.2,21c1,0,1.6-1.2,1.6-2.7c0-1.8-1-3.4-2.4-4.3c-0.1,1.4-0.3,3.3-0.3,4.2
		C12.1,19.7,12.3,21,13.2,21z"/>
	<path fill="#FFFFFF" d="M19,14.3c-0.2,1.1-0.6,2.7-0.6,4.2c0,1.1,0.2,2.2,1,2.2c1.5,0,2.9-3.1,3.4-6.8c0-0.3,0.2-0.4,0.6-0.4
		c0.2,0,0.4,0.3,0.4,0.6c0,0.2-0.1,1.2-0.3,1.9c-0.2,1.3-0.4,2.4-0.4,3.2c0,0.8,0.1,1.3,0.5,1.7c0.1,0.1,0.1,0.2,0.1,0.3
		c0,0.3-0.2,0.5-0.5,0.5c-0.5,0-1.1-1-1.1-2.3c-0.6,1.5-1.7,2.4-2.7,2.4c-0.9,0-2-0.5-2-3.3c0-1.6,0.3-3.4,0.5-4.2
		c0-0.2,0.1-0.6,0.5-0.6C18.8,13.7,19,14,19,14.3L19,14.3L19,14.3z"/>
	<path fill="#FFFFFF" d="M26.5,21.3c0,0.3-0.2,0.4-0.5,0.4s-0.5-0.2-0.5-0.5c0-0.1,0.7-4.1,0.7-4.9c0-1.1-0.2-1.5-0.5-1.7
		c-0.1-0.1-0.1-0.2-0.1-0.4c0-0.3,0.2-0.5,0.5-0.5c0.4,0,1.1,0.8,1.1,2c0.5-1.6,1.8-2.3,3-2.3c0.3,0,0.6,0.2,0.6,0.5
		c0,0.3-0.2,0.4-0.5,0.5c-2.5,0.1-3,3.1-3.5,6.1L26.5,21.3z"/>
	<path fill="#FFFFFF" d="M37.3,15.8c0,0.9-0.1,1.9-0.3,2.9c-0.1,0.6-0.2,1.4-0.2,1.9c0,0.1,0,0.2,0,0.3c0,0.1,0.1,0.1,0.1,0.3
		c0,0.2-0.2,0.5-0.5,0.5c-0.5,0-0.7-0.7-0.7-1.2c0-0.5,0.1-1.2,0.2-2c0.1-0.9,0.3-1.8,0.3-2.6c0-1.2-0.6-1.6-1.2-1.6
		c-1.8,0-3.2,2.8-3.2,4.9c0,0.9,0.4,1.5,1,1.5s1.1-0.6,1.4-1.2c0-0.2,0.2-0.3,0.4-0.3c0.3,0,0.5,0.2,0.5,0.5c0,0.4-0.8,2-2.5,2
		c-1,0-1.9-0.7-1.9-2.5c0-2.5,1.7-5.9,4.3-5.9C36.4,13.3,37.3,14.2,37.3,15.8z"/>
	<path fill="#501E34" d="M51.4,10.7c0,2.8-2.6,4.3-4.3,4.3c-0.3,0-0.5-0.2-0.5-0.5c0-0.2,0.2-0.4,0.5-0.5c1.4,0,3.3-1.3,3.3-3.3
		c0-1.8-1.5-3.2-3.4-3.2c-1.1,0-2,0.2-2.9,0.8c1,1.8,1.4,4.3,1.4,6.7c0,4.4-1.4,6.8-3.4,6.8c-1.7,0-3-1.6-3-5.1c0-3,1.1-6.6,3.6-8.7
		c-0.7-0.9-1.7-1.5-2.8-1.5c-0.3,0-0.5-0.2-0.5-0.5c0-0.3,0.2-0.5,0.5-0.5c1.5,0,2.8,0.7,3.6,1.9c1.1-0.6,2.2-0.9,3.5-0.9
		C49.6,6.5,51.4,8.3,51.4,10.7z M43.1,8.9c-2.2,2-3.1,5.5-3.1,7.9c0,2.1,0.6,4.1,1.9,4.1c1.2,0,2.3-2.2,2.3-5.7
		C44.4,12.9,44,10.6,43.1,8.9z"/>
	<path fill="#501E34" d="M54.1,14.2C54.1,14.2,54.1,14.2,54.1,14.2c-0.4,1.8-0.9,4.9-1,7.2c0,0.3-0.2,0.5-0.5,0.5
		c-0.3,0-0.5-0.2-0.5-0.5c0-0.3,0.3-4.5,1.1-7.3c0-0.3,0.3-0.4,0.6-0.4C53.9,13.7,54.1,13.9,54.1,14.2z M55.2,10.6l-1,0.7l1.5,0.9
		l-1.7-0.3l-0.7,1.3v-1.4l-1.2-0.1l1.2-0.7l-0.1-1.1l0.7,0.8L55.2,10.6z"/>
	<path fill="#501E34" d="M62.1,16.7c0,1.7-0.4,3.5-0.5,4.4c0,0.5-0.4,0.5-0.5,0.5c-0.3,0-0.5-0.2-0.5-0.5c0,0,0,0,0-0.1
		c0.2-0.8,0.5-2.6,0.5-4.2c0-1.3-0.2-2.2-0.9-2.2c-1.3,0-2.8,2.7-3.5,6.6c0,0.2-0.2,0.4-0.5,0.4c-0.3,0-0.5-0.2-0.5-0.5
		s0.4-2,0.5-2.4c0.2-1.1,0.5-2.1,0.5-2.9c0-0.7-0.1-1.1-0.4-1.4c0-0.1-0.1-0.2-0.1-0.4c0-0.2,0.2-0.5,0.5-0.5c0.5,0,1.1,0.9,1,2.3
		c0.6-1.5,1.6-2.2,2.6-2.2C60.8,13.5,62.1,13.8,62.1,16.7z"/>
	<path fill="#501E34" d="M66.2,19.9c0,0.7,0,0.9,0.1,1c0,0,0,0.1,0,0.2c0,0.3-0.2,0.5-0.5,0.5c-0.7,0-0.7-1.1-0.7-1.7
		c0-0.5,0-1.2,0.1-1.8c-1.2-0.4-1.7-1.1-1.7-1.8c0-1.1,0.9-1.9,2.3-1.9c0.1-0.5,0.2-1.2,0.3-1.6c0.5-2.2,0.8-3.4,0.8-4.4
		c0-0.5,0-0.8-0.1-0.9c0,0,0-0.1,0-0.2c0-0.2,0.1-0.4,0.3-0.5c0,0,0.1,0,0.2,0C68,6.8,68,7.6,68,8.4c0,1.1-0.3,2.7-0.6,4
		c-0.1,0.6-0.3,1.3-0.4,2c0.9,0.2,1.7,0.8,2.2,1.4c0.5-0.5,1.1-1.3,1.1-2.2c0-0.2,0.2-0.5,0.5-0.5c0.3,0,0.5,0.2,0.5,0.5
		c0,1-0.9,2.5-1.6,3c1,1.2,1.4,2.9,1.4,4.3c0,0.5-0.4,0.6-0.5,0.6c0,0-0.5,0-0.5-0.6c0-1.2-0.4-2.6-1.2-3.6
		c-0.5,0.4-1.5,0.9-2.7,0.9C66.2,18.9,66.2,19.5,66.2,19.9z M65.4,17.2c0.1-0.6,0.2-1.2,0.3-1.8c-0.6,0-1.1,0.3-1.1,1
		c0,0.2,0.1,0.4,0.2,0.6C65,17,65.2,17.1,65.4,17.2z M66.5,17.3c0.8,0,1.5-0.3,2-0.7c-0.3-0.5-1-1-1.7-1.2
		C66.6,16,66.6,16.7,66.5,17.3L66.5,17.3z"/>
</g>
<g id="grid">
</g>
<g id="frame">
</g>
</svg>
